<mxfile host="app.diagrams.net" modified="2022-07-31T16:25:25.412Z" agent="5.0 (Macintosh; Intel Mac OS X 10_15_7) AppleWebKit/537.36 (KHTML, like Gecko) Chrome/103.0.0.0 Safari/537.36" etag="5IyHg05ZFrcjllPBOkB2" version="20.2.2" type="github">
  <diagram id="C5RBs43oDa-KdzZeNtuy" name="Page-1">
    <mxGraphModel dx="960" dy="634" grid="1" gridSize="10" guides="1" tooltips="1" connect="1" arrows="1" fold="1" page="1" pageScale="1" pageWidth="827" pageHeight="1169" math="0" shadow="0">
      <root>
        <mxCell id="WIyWlLk6GJQsqaUBKTNV-0" />
        <mxCell id="WIyWlLk6GJQsqaUBKTNV-1" parent="WIyWlLk6GJQsqaUBKTNV-0" />
        <mxCell id="nX3zoIiRxe3SXxiKhmAb-9" style="edgeStyle=orthogonalEdgeStyle;rounded=0;orthogonalLoop=1;jettySize=auto;html=1;exitX=1;exitY=0.5;exitDx=0;exitDy=0;entryX=0;entryY=0.5;entryDx=0;entryDy=0;fontSize=21;" edge="1" parent="WIyWlLk6GJQsqaUBKTNV-1" source="nX3zoIiRxe3SXxiKhmAb-0" target="nX3zoIiRxe3SXxiKhmAb-1">
          <mxGeometry relative="1" as="geometry" />
        </mxCell>
        <mxCell id="nX3zoIiRxe3SXxiKhmAb-22" style="edgeStyle=orthogonalEdgeStyle;rounded=0;orthogonalLoop=1;jettySize=auto;html=1;exitX=0.5;exitY=1;exitDx=0;exitDy=0;fontSize=21;" edge="1" parent="WIyWlLk6GJQsqaUBKTNV-1" source="nX3zoIiRxe3SXxiKhmAb-1" target="nX3zoIiRxe3SXxiKhmAb-20">
          <mxGeometry relative="1" as="geometry" />
        </mxCell>
        <mxCell id="nX3zoIiRxe3SXxiKhmAb-0" value="&lt;font style=&quot;font-size: 21px;&quot;&gt;Users&lt;/font&gt;" style="whiteSpace=wrap;html=1;aspect=fixed;" vertex="1" parent="WIyWlLk6GJQsqaUBKTNV-1">
          <mxGeometry x="30" y="160" width="160" height="160" as="geometry" />
        </mxCell>
        <mxCell id="nX3zoIiRxe3SXxiKhmAb-1" value="Core" style="rounded=1;whiteSpace=wrap;html=1;fontSize=21;" vertex="1" parent="WIyWlLk6GJQsqaUBKTNV-1">
          <mxGeometry x="210" y="200" width="190" height="80" as="geometry" />
        </mxCell>
        <mxCell id="nX3zoIiRxe3SXxiKhmAb-4" value="Add service/Auction service" style="rounded=1;whiteSpace=wrap;html=1;fontSize=21;fillColor=none;" vertex="1" parent="WIyWlLk6GJQsqaUBKTNV-1">
          <mxGeometry x="430" y="135" width="180" height="80" as="geometry" />
        </mxCell>
        <mxCell id="nX3zoIiRxe3SXxiKhmAb-6" value="Add ranking service/Bid chooser service" style="rounded=1;whiteSpace=wrap;html=1;fontSize=21;fillColor=none;" vertex="1" parent="WIyWlLk6GJQsqaUBKTNV-1">
          <mxGeometry x="620" y="135" width="180" height="80" as="geometry" />
        </mxCell>
        <mxCell id="nX3zoIiRxe3SXxiKhmAb-7" value="Add retriever service" style="rounded=1;whiteSpace=wrap;html=1;fontSize=21;fillColor=none;" vertex="1" parent="WIyWlLk6GJQsqaUBKTNV-1">
          <mxGeometry x="520" y="230" width="180" height="80" as="geometry" />
        </mxCell>
        <mxCell id="nX3zoIiRxe3SXxiKhmAb-13" value="" style="endArrow=classic;html=1;rounded=0;fontSize=21;exitX=1;exitY=0.5;exitDx=0;exitDy=0;entryX=0;entryY=0.5;entryDx=0;entryDy=0;" edge="1" parent="WIyWlLk6GJQsqaUBKTNV-1" source="nX3zoIiRxe3SXxiKhmAb-1" target="nX3zoIiRxe3SXxiKhmAb-7">
          <mxGeometry width="50" height="50" relative="1" as="geometry">
            <mxPoint x="290" y="370" as="sourcePoint" />
            <mxPoint x="414" y="239.35483870967744" as="targetPoint" />
          </mxGeometry>
        </mxCell>
        <mxCell id="nX3zoIiRxe3SXxiKhmAb-16" value="" style="endArrow=classic;html=1;rounded=0;fontSize=21;exitX=1;exitY=0.5;exitDx=0;exitDy=0;entryX=0;entryY=0.5;entryDx=0;entryDy=0;" edge="1" parent="WIyWlLk6GJQsqaUBKTNV-1" source="nX3zoIiRxe3SXxiKhmAb-4" target="nX3zoIiRxe3SXxiKhmAb-6">
          <mxGeometry width="50" height="50" relative="1" as="geometry">
            <mxPoint x="430" y="410" as="sourcePoint" />
            <mxPoint x="480" y="360" as="targetPoint" />
          </mxGeometry>
        </mxCell>
        <mxCell id="nX3zoIiRxe3SXxiKhmAb-17" value="" style="endArrow=classic;html=1;rounded=0;fontSize=21;exitX=0.117;exitY=1.019;exitDx=0;exitDy=0;exitPerimeter=0;entryX=0.683;entryY=-0.006;entryDx=0;entryDy=0;entryPerimeter=0;" edge="1" parent="WIyWlLk6GJQsqaUBKTNV-1" source="nX3zoIiRxe3SXxiKhmAb-6" target="nX3zoIiRxe3SXxiKhmAb-7">
          <mxGeometry width="50" height="50" relative="1" as="geometry">
            <mxPoint x="290" y="370" as="sourcePoint" />
            <mxPoint x="340" y="320" as="targetPoint" />
          </mxGeometry>
        </mxCell>
        <mxCell id="nX3zoIiRxe3SXxiKhmAb-23" style="edgeStyle=orthogonalEdgeStyle;rounded=0;orthogonalLoop=1;jettySize=auto;html=1;exitX=1;exitY=0.5;exitDx=0;exitDy=0;entryX=0;entryY=0.5;entryDx=0;entryDy=0;entryPerimeter=0;fontSize=21;" edge="1" parent="WIyWlLk6GJQsqaUBKTNV-1" source="nX3zoIiRxe3SXxiKhmAb-20" target="nX3zoIiRxe3SXxiKhmAb-21">
          <mxGeometry relative="1" as="geometry" />
        </mxCell>
        <mxCell id="nX3zoIiRxe3SXxiKhmAb-20" value="Metrics collector service" style="rounded=1;whiteSpace=wrap;html=1;fontSize=21;" vertex="1" parent="WIyWlLk6GJQsqaUBKTNV-1">
          <mxGeometry x="140" y="390" width="190" height="80" as="geometry" />
        </mxCell>
        <mxCell id="nX3zoIiRxe3SXxiKhmAb-21" value="Event queue" style="strokeWidth=2;html=1;shape=mxgraph.flowchart.direct_data;whiteSpace=wrap;fontSize=21;fillColor=none;" vertex="1" parent="WIyWlLk6GJQsqaUBKTNV-1">
          <mxGeometry x="364" y="400" width="205" height="60" as="geometry" />
        </mxCell>
        <mxCell id="nX3zoIiRxe3SXxiKhmAb-26" value="" style="endArrow=classic;html=1;rounded=0;fontSize=21;exitX=0.5;exitY=0;exitDx=0;exitDy=0;" edge="1" parent="WIyWlLk6GJQsqaUBKTNV-1" source="nX3zoIiRxe3SXxiKhmAb-6">
          <mxGeometry relative="1" as="geometry">
            <mxPoint x="380" y="330" as="sourcePoint" />
            <mxPoint x="310" y="200" as="targetPoint" />
            <Array as="points">
              <mxPoint x="620" y="80" />
              <mxPoint x="460" y="80" />
              <mxPoint x="310" y="200" />
            </Array>
          </mxGeometry>
        </mxCell>
      </root>
    </mxGraphModel>
  </diagram>
</mxfile>
